# xmcd
#
# Track frame offsets: 
#        150
#        16692
#        37853
#        50974
#        71544
#        85795
#        101592
#        112998
#        127439
#        144950
#        161035
#        182421
#        197139
#        215302
#
# Disc length: 3080 seconds
#
# Revision: 0
# Processed by: cddbd v1.5.2PL0 Copyright (c) Steve Scherf et al.
# Submitted via: ExactAudioCopyFreeDBPlugin 1.0
#
DISCID=be0c060e
DTITLE=The Secret Sisters - Put Your Needle Down - Deluxe Edition
DYEAR=2014
DGENRE=Country
TTITLE0=Rattle My Bones
TTITLE1=Iuka
TTITLE2=Dirty Lie
TTITLE3=The Pocket Knife
TTITLE4=Let There Be Lonely
TTITLE5=Black and Blue
TTITLE6=Lonely Island
TTITLE7=I Cannot Find a Way
TTITLE8=If I Don't
TTITLE9=Good Luck, Good Night, Goodbye
TTITLE10=Bad Habit
TTITLE11=River Jordan
TTITLE12=You've Got It Wrong
TTITLE13=Next Sunday
EXTD=
EXTT0=
EXTT1=
EXTT2=
EXTT3=
EXTT4=
EXTT5=
EXTT6=
EXTT7=
EXTT8=
EXTT9=
EXTT10=
EXTT11=
EXTT12=
EXTT13=
PLAYORDER=
